<mxfile host="app.diagrams.net" modified="2023-11-14T12:57:09.251Z" agent="Mozilla/5.0 (Macintosh; Intel Mac OS X 10_15_7) AppleWebKit/537.36 (KHTML, like Gecko) Chrome/119.0.0.0 Safari/537.36" etag="-mEEB7b2c37oqvm3ZLVg" version="22.1.0" type="github">
  <diagram name="Page-1" id="2YBvvXClWsGukQMizWep">
    <mxGraphModel dx="755" dy="510" grid="1" gridSize="10" guides="1" tooltips="1" connect="1" arrows="1" fold="1" page="1" pageScale="1" pageWidth="850" pageHeight="1100" math="0" shadow="0">
      <root>
        <mxCell id="0" />
        <mxCell id="1" parent="0" />
        <mxCell id="ssYmU_9ab5f28VPRTGyQ-70" value="" style="rounded=0;whiteSpace=wrap;html=1;fillColor=none;" vertex="1" parent="1">
          <mxGeometry x="240" y="920" width="400" height="210" as="geometry" />
        </mxCell>
        <mxCell id="ssYmU_9ab5f28VPRTGyQ-24" value="" style="rounded=0;whiteSpace=wrap;html=1;fillColor=none;" vertex="1" parent="1">
          <mxGeometry x="280" y="40" width="320" height="350" as="geometry" />
        </mxCell>
        <mxCell id="ssYmU_9ab5f28VPRTGyQ-3" value="" style="rounded=0;whiteSpace=wrap;html=1;fillColor=none;" vertex="1" parent="1">
          <mxGeometry x="310" y="171" width="260" height="180" as="geometry" />
        </mxCell>
        <mxCell id="aM9ryv3xv72pqoxQDRHE-7" value="Überprüfen" style="html=1;verticalAlign=bottom;endArrow=block;edgeStyle=elbowEdgeStyle;elbow=vertical;curved=0;rounded=0;" parent="1" edge="1">
          <mxGeometry relative="1" as="geometry">
            <mxPoint x="340" y="161" as="sourcePoint" />
            <Array as="points">
              <mxPoint x="440" y="161" />
            </Array>
            <mxPoint x="540" y="161" as="targetPoint" />
            <mxPoint as="offset" />
          </mxGeometry>
        </mxCell>
        <mxCell id="ssYmU_9ab5f28VPRTGyQ-2" value="Theorieprüfungszulassung" style="text;html=1;align=center;verticalAlign=middle;resizable=0;points=[];autosize=1;strokeColor=none;fillColor=none;" vertex="1" parent="1">
          <mxGeometry x="280" y="40" width="160" height="30" as="geometry" />
        </mxCell>
        <mxCell id="ssYmU_9ab5f28VPRTGyQ-5" value="" style="rounded=0;whiteSpace=wrap;html=1;fillColor=none;" vertex="1" parent="1">
          <mxGeometry x="310" y="171" width="20" height="20" as="geometry" />
        </mxCell>
        <mxCell id="ssYmU_9ab5f28VPRTGyQ-6" value="alt" style="text;html=1;strokeColor=none;fillColor=none;align=center;verticalAlign=middle;whiteSpace=wrap;rounded=0;" vertex="1" parent="1">
          <mxGeometry x="290" y="166" width="60" height="30" as="geometry" />
        </mxCell>
        <mxCell id="ssYmU_9ab5f28VPRTGyQ-8" value="Fahrschüler zugelassen" style="text;html=1;strokeColor=none;fillColor=none;align=center;verticalAlign=middle;whiteSpace=wrap;rounded=0;" vertex="1" parent="1">
          <mxGeometry x="350" y="218" width="180" height="30" as="geometry" />
        </mxCell>
        <mxCell id="ssYmU_9ab5f28VPRTGyQ-9" value="[hat notwendige Stunden]" style="text;html=1;strokeColor=none;fillColor=none;align=center;verticalAlign=middle;whiteSpace=wrap;rounded=0;" vertex="1" parent="1">
          <mxGeometry x="307" y="196" width="160" height="10" as="geometry" />
        </mxCell>
        <mxCell id="ssYmU_9ab5f28VPRTGyQ-10" value="" style="endArrow=classic;html=1;rounded=0;" edge="1" parent="1">
          <mxGeometry width="50" height="50" relative="1" as="geometry">
            <mxPoint x="538" y="241" as="sourcePoint" />
            <mxPoint x="340" y="241" as="targetPoint" />
          </mxGeometry>
        </mxCell>
        <mxCell id="ssYmU_9ab5f28VPRTGyQ-14" value="" style="endArrow=none;dashed=1;html=1;dashPattern=1 3;strokeWidth=2;rounded=0;entryX=0.001;entryY=0.596;entryDx=0;entryDy=0;entryPerimeter=0;exitX=0.999;exitY=0.593;exitDx=0;exitDy=0;exitPerimeter=0;" edge="1" parent="1">
          <mxGeometry width="50" height="50" relative="1" as="geometry">
            <mxPoint x="569.74" y="260.7399999999999" as="sourcePoint" />
            <mxPoint x="310.2599999999999" y="261.28" as="targetPoint" />
          </mxGeometry>
        </mxCell>
        <mxCell id="ssYmU_9ab5f28VPRTGyQ-15" value=":Sekretär" style="rounded=0;whiteSpace=wrap;html=1;" vertex="1" parent="1">
          <mxGeometry x="300" y="81" width="80" height="40" as="geometry" />
        </mxCell>
        <mxCell id="ssYmU_9ab5f28VPRTGyQ-16" value=":Drive Now" style="rounded=0;whiteSpace=wrap;html=1;" vertex="1" parent="1">
          <mxGeometry x="500" y="81" width="80" height="40" as="geometry" />
        </mxCell>
        <mxCell id="ssYmU_9ab5f28VPRTGyQ-17" value="" style="endArrow=none;html=1;rounded=0;" edge="1" parent="1">
          <mxGeometry width="50" height="50" relative="1" as="geometry">
            <mxPoint x="340" y="391" as="sourcePoint" />
            <mxPoint x="340" y="121" as="targetPoint" />
          </mxGeometry>
        </mxCell>
        <mxCell id="ssYmU_9ab5f28VPRTGyQ-18" value="" style="endArrow=none;html=1;rounded=0;" edge="1" parent="1">
          <mxGeometry width="50" height="50" relative="1" as="geometry">
            <mxPoint x="540" y="391" as="sourcePoint" />
            <mxPoint x="540" y="121" as="targetPoint" />
          </mxGeometry>
        </mxCell>
        <mxCell id="ssYmU_9ab5f28VPRTGyQ-20" value="[hat notwendige Stunden nicht]" style="text;html=1;strokeColor=none;fillColor=none;align=center;verticalAlign=middle;whiteSpace=wrap;rounded=0;" vertex="1" parent="1">
          <mxGeometry x="295" y="281" width="210" as="geometry" />
        </mxCell>
        <mxCell id="ssYmU_9ab5f28VPRTGyQ-22" value="Fahrschüler nicht zugelassen" style="text;html=1;strokeColor=none;fillColor=none;align=center;verticalAlign=middle;whiteSpace=wrap;rounded=0;" vertex="1" parent="1">
          <mxGeometry x="350" y="301" width="180" height="30" as="geometry" />
        </mxCell>
        <mxCell id="ssYmU_9ab5f28VPRTGyQ-23" value="" style="endArrow=classic;html=1;rounded=0;" edge="1" parent="1">
          <mxGeometry width="50" height="50" relative="1" as="geometry">
            <mxPoint x="538" y="328" as="sourcePoint" />
            <mxPoint x="340" y="328" as="targetPoint" />
          </mxGeometry>
        </mxCell>
        <mxCell id="ssYmU_9ab5f28VPRTGyQ-27" value=":Sekretär" style="rounded=0;whiteSpace=wrap;html=1;" vertex="1" parent="1">
          <mxGeometry x="160" y="480" width="80" height="40" as="geometry" />
        </mxCell>
        <mxCell id="ssYmU_9ab5f28VPRTGyQ-28" value="" style="endArrow=none;html=1;rounded=0;entryX=0.5;entryY=1;entryDx=0;entryDy=0;" edge="1" parent="1" target="ssYmU_9ab5f28VPRTGyQ-27">
          <mxGeometry width="50" height="50" relative="1" as="geometry">
            <mxPoint x="200" y="720" as="sourcePoint" />
            <mxPoint x="470" y="540" as="targetPoint" />
          </mxGeometry>
        </mxCell>
        <mxCell id="ssYmU_9ab5f28VPRTGyQ-33" value=":Drive Now" style="rounded=0;whiteSpace=wrap;html=1;" vertex="1" parent="1">
          <mxGeometry x="320" y="480" width="80" height="40" as="geometry" />
        </mxCell>
        <mxCell id="ssYmU_9ab5f28VPRTGyQ-34" value="" style="endArrow=none;html=1;rounded=0;entryX=0.5;entryY=1;entryDx=0;entryDy=0;" edge="1" parent="1" target="ssYmU_9ab5f28VPRTGyQ-33">
          <mxGeometry width="50" height="50" relative="1" as="geometry">
            <mxPoint x="360" y="720" as="sourcePoint" />
            <mxPoint x="630" y="540" as="targetPoint" />
          </mxGeometry>
        </mxCell>
        <mxCell id="ssYmU_9ab5f28VPRTGyQ-35" value=":Fahrlehrer" style="rounded=0;whiteSpace=wrap;html=1;" vertex="1" parent="1">
          <mxGeometry x="480" y="480" width="80" height="40" as="geometry" />
        </mxCell>
        <mxCell id="ssYmU_9ab5f28VPRTGyQ-36" value="" style="endArrow=none;html=1;rounded=0;entryX=0.5;entryY=1;entryDx=0;entryDy=0;" edge="1" parent="1" target="ssYmU_9ab5f28VPRTGyQ-35">
          <mxGeometry width="50" height="50" relative="1" as="geometry">
            <mxPoint x="520" y="720" as="sourcePoint" />
            <mxPoint x="790" y="540" as="targetPoint" />
          </mxGeometry>
        </mxCell>
        <mxCell id="ssYmU_9ab5f28VPRTGyQ-37" value=":Fahrschüler" style="rounded=0;whiteSpace=wrap;html=1;" vertex="1" parent="1">
          <mxGeometry x="640" y="480" width="80" height="40" as="geometry" />
        </mxCell>
        <mxCell id="ssYmU_9ab5f28VPRTGyQ-38" value="" style="endArrow=none;html=1;rounded=0;entryX=0.5;entryY=1;entryDx=0;entryDy=0;" edge="1" parent="1" target="ssYmU_9ab5f28VPRTGyQ-37">
          <mxGeometry width="50" height="50" relative="1" as="geometry">
            <mxPoint x="680" y="720" as="sourcePoint" />
            <mxPoint x="950" y="540" as="targetPoint" />
          </mxGeometry>
        </mxCell>
        <mxCell id="ssYmU_9ab5f28VPRTGyQ-39" value="" style="endArrow=classic;html=1;rounded=0;" edge="1" parent="1">
          <mxGeometry width="50" height="50" relative="1" as="geometry">
            <mxPoint x="200" y="560" as="sourcePoint" />
            <mxPoint x="360" y="560" as="targetPoint" />
          </mxGeometry>
        </mxCell>
        <mxCell id="ssYmU_9ab5f28VPRTGyQ-40" value="" style="endArrow=classic;html=1;rounded=0;" edge="1" parent="1">
          <mxGeometry width="50" height="50" relative="1" as="geometry">
            <mxPoint x="360" y="600" as="sourcePoint" />
            <mxPoint x="520" y="600" as="targetPoint" />
          </mxGeometry>
        </mxCell>
        <mxCell id="ssYmU_9ab5f28VPRTGyQ-41" value="" style="endArrow=classic;html=1;rounded=0;" edge="1" parent="1">
          <mxGeometry width="50" height="50" relative="1" as="geometry">
            <mxPoint x="360" y="640" as="sourcePoint" />
            <mxPoint x="680" y="640" as="targetPoint" />
          </mxGeometry>
        </mxCell>
        <mxCell id="ssYmU_9ab5f28VPRTGyQ-42" value="" style="endArrow=classic;html=1;rounded=0;" edge="1" parent="1">
          <mxGeometry width="50" height="50" relative="1" as="geometry">
            <mxPoint x="360" y="680" as="sourcePoint" />
            <mxPoint x="200" y="680" as="targetPoint" />
          </mxGeometry>
        </mxCell>
        <mxCell id="ssYmU_9ab5f28VPRTGyQ-43" value="" style="rounded=0;whiteSpace=wrap;html=1;fillColor=none;" vertex="1" parent="1">
          <mxGeometry x="140" y="440" width="600" height="280" as="geometry" />
        </mxCell>
        <mxCell id="ssYmU_9ab5f28VPRTGyQ-44" value="Fahrstunden löschen" style="text;html=1;strokeColor=none;fillColor=none;align=center;verticalAlign=middle;whiteSpace=wrap;rounded=0;" vertex="1" parent="1">
          <mxGeometry x="110" y="440" width="190" height="19" as="geometry" />
        </mxCell>
        <mxCell id="ssYmU_9ab5f28VPRTGyQ-45" value="Fahrstunde löschen" style="text;html=1;strokeColor=none;fillColor=none;align=center;verticalAlign=middle;whiteSpace=wrap;rounded=0;" vertex="1" parent="1">
          <mxGeometry x="130" y="530" width="310" height="30" as="geometry" />
        </mxCell>
        <mxCell id="ssYmU_9ab5f28VPRTGyQ-47" value="Benachrichtigen" style="text;html=1;strokeColor=none;fillColor=none;align=center;verticalAlign=middle;whiteSpace=wrap;rounded=0;" vertex="1" parent="1">
          <mxGeometry x="285" y="570" width="310" height="30" as="geometry" />
        </mxCell>
        <mxCell id="ssYmU_9ab5f28VPRTGyQ-48" value="Benachrichtigen" style="text;html=1;strokeColor=none;fillColor=none;align=center;verticalAlign=middle;whiteSpace=wrap;rounded=0;" vertex="1" parent="1">
          <mxGeometry x="285" y="610" width="310" height="30" as="geometry" />
        </mxCell>
        <mxCell id="ssYmU_9ab5f28VPRTGyQ-49" value="Fahrstunde gelöscht" style="text;html=1;strokeColor=none;fillColor=none;align=center;verticalAlign=middle;whiteSpace=wrap;rounded=0;" vertex="1" parent="1">
          <mxGeometry x="190" y="660" width="180" height="20" as="geometry" />
        </mxCell>
        <mxCell id="ssYmU_9ab5f28VPRTGyQ-51" value=":Sekretär" style="rounded=0;whiteSpace=wrap;html=1;" vertex="1" parent="1">
          <mxGeometry x="240" y="800" width="80" height="40" as="geometry" />
        </mxCell>
        <mxCell id="ssYmU_9ab5f28VPRTGyQ-52" value="" style="endArrow=none;html=1;rounded=0;entryX=0.5;entryY=1;entryDx=0;entryDy=0;exitX=0.1;exitY=1.009;exitDx=0;exitDy=0;exitPerimeter=0;" edge="1" parent="1" target="ssYmU_9ab5f28VPRTGyQ-51" source="ssYmU_9ab5f28VPRTGyQ-70">
          <mxGeometry width="50" height="50" relative="1" as="geometry">
            <mxPoint x="280" y="1040" as="sourcePoint" />
            <mxPoint x="550" y="860" as="targetPoint" />
          </mxGeometry>
        </mxCell>
        <mxCell id="ssYmU_9ab5f28VPRTGyQ-53" value=":Drive Now" style="rounded=0;whiteSpace=wrap;html=1;" vertex="1" parent="1">
          <mxGeometry x="400" y="800" width="80" height="40" as="geometry" />
        </mxCell>
        <mxCell id="ssYmU_9ab5f28VPRTGyQ-54" value="" style="endArrow=none;html=1;rounded=0;entryX=0.5;entryY=1;entryDx=0;entryDy=0;exitX=0.5;exitY=1;exitDx=0;exitDy=0;" edge="1" parent="1" target="ssYmU_9ab5f28VPRTGyQ-53" source="ssYmU_9ab5f28VPRTGyQ-70">
          <mxGeometry width="50" height="50" relative="1" as="geometry">
            <mxPoint x="440" y="1040" as="sourcePoint" />
            <mxPoint x="710" y="860" as="targetPoint" />
          </mxGeometry>
        </mxCell>
        <mxCell id="ssYmU_9ab5f28VPRTGyQ-55" value=":Fahrlehrer" style="rounded=0;whiteSpace=wrap;html=1;" vertex="1" parent="1">
          <mxGeometry x="560" y="800" width="80" height="40" as="geometry" />
        </mxCell>
        <mxCell id="ssYmU_9ab5f28VPRTGyQ-56" value="" style="endArrow=none;html=1;rounded=0;entryX=0.5;entryY=1;entryDx=0;entryDy=0;" edge="1" parent="1" target="ssYmU_9ab5f28VPRTGyQ-55">
          <mxGeometry width="50" height="50" relative="1" as="geometry">
            <mxPoint x="600" y="1130" as="sourcePoint" />
            <mxPoint x="870" y="860" as="targetPoint" />
          </mxGeometry>
        </mxCell>
        <mxCell id="ssYmU_9ab5f28VPRTGyQ-59" value="" style="endArrow=classic;html=1;rounded=0;" edge="1" parent="1">
          <mxGeometry width="50" height="50" relative="1" as="geometry">
            <mxPoint x="280" y="880" as="sourcePoint" />
            <mxPoint x="440" y="880" as="targetPoint" />
          </mxGeometry>
        </mxCell>
        <mxCell id="ssYmU_9ab5f28VPRTGyQ-63" value="Fahrstunde hinzufügen" style="text;html=1;strokeColor=none;fillColor=none;align=center;verticalAlign=middle;whiteSpace=wrap;rounded=0;" vertex="1" parent="1">
          <mxGeometry x="210" y="850" width="310" height="30" as="geometry" />
        </mxCell>
        <mxCell id="ssYmU_9ab5f28VPRTGyQ-69" value="(fahrzeugID)" style="text;html=1;align=center;verticalAlign=middle;resizable=0;points=[];autosize=1;strokeColor=none;fillColor=none;" vertex="1" parent="1">
          <mxGeometry x="315" y="880" width="90" height="30" as="geometry" />
        </mxCell>
        <mxCell id="ssYmU_9ab5f28VPRTGyQ-73" value="alt" style="whiteSpace=wrap;html=1;fillColor=none;" vertex="1" parent="1">
          <mxGeometry x="240" y="920" width="30" height="20" as="geometry" />
        </mxCell>
        <mxCell id="ssYmU_9ab5f28VPRTGyQ-74" value="[Kennzeichen ungültig]" style="text;html=1;align=center;verticalAlign=middle;resizable=0;points=[];autosize=1;strokeColor=none;fillColor=none;" vertex="1" parent="1">
          <mxGeometry x="240" y="938" width="140" height="30" as="geometry" />
        </mxCell>
        <mxCell id="ssYmU_9ab5f28VPRTGyQ-76" value="" style="endArrow=classic;html=1;rounded=0;" edge="1" parent="1">
          <mxGeometry width="50" height="50" relative="1" as="geometry">
            <mxPoint x="440" y="990" as="sourcePoint" />
            <mxPoint x="280" y="990" as="targetPoint" />
          </mxGeometry>
        </mxCell>
        <mxCell id="ssYmU_9ab5f28VPRTGyQ-77" value="Fehlermeldung" style="text;html=1;align=center;verticalAlign=middle;resizable=0;points=[];autosize=1;strokeColor=none;fillColor=none;" vertex="1" parent="1">
          <mxGeometry x="310" y="965" width="100" height="30" as="geometry" />
        </mxCell>
        <mxCell id="ssYmU_9ab5f28VPRTGyQ-80" value="" style="endArrow=none;dashed=1;html=1;dashPattern=1 3;strokeWidth=2;rounded=0;exitX=0;exitY=0.5;exitDx=0;exitDy=0;entryX=1;entryY=0.5;entryDx=0;entryDy=0;" edge="1" parent="1">
          <mxGeometry width="50" height="50" relative="1" as="geometry">
            <mxPoint x="240" y="1010" as="sourcePoint" />
            <mxPoint x="640" y="1010" as="targetPoint" />
          </mxGeometry>
        </mxCell>
        <mxCell id="ssYmU_9ab5f28VPRTGyQ-81" value="[Kennzeichen gültig]" style="text;html=1;align=center;verticalAlign=middle;resizable=0;points=[];autosize=1;strokeColor=none;fillColor=none;" vertex="1" parent="1">
          <mxGeometry x="245" y="1020" width="130" height="30" as="geometry" />
        </mxCell>
        <mxCell id="ssYmU_9ab5f28VPRTGyQ-82" value="" style="endArrow=classic;html=1;rounded=0;" edge="1" parent="1">
          <mxGeometry width="50" height="50" relative="1" as="geometry">
            <mxPoint x="440" y="1069" as="sourcePoint" />
            <mxPoint x="280" y="1069" as="targetPoint" />
          </mxGeometry>
        </mxCell>
        <mxCell id="ssYmU_9ab5f28VPRTGyQ-83" value="Fahrlehrer eingetragen" style="text;html=1;align=center;verticalAlign=middle;resizable=0;points=[];autosize=1;strokeColor=none;fillColor=none;" vertex="1" parent="1">
          <mxGeometry x="290" y="1045" width="150" height="30" as="geometry" />
        </mxCell>
        <mxCell id="ssYmU_9ab5f28VPRTGyQ-84" value="" style="shape=crossbar;whiteSpace=wrap;html=1;rounded=1;direction=south;" vertex="1" parent="1">
          <mxGeometry x="430" y="830" width="20" height="120" as="geometry" />
        </mxCell>
        <mxCell id="ssYmU_9ab5f28VPRTGyQ-85" value="" style="endArrow=classic;html=1;rounded=0;" edge="1" parent="1">
          <mxGeometry width="50" height="50" relative="1" as="geometry">
            <mxPoint x="440" y="1100" as="sourcePoint" />
            <mxPoint x="600" y="1100" as="targetPoint" />
          </mxGeometry>
        </mxCell>
        <mxCell id="ssYmU_9ab5f28VPRTGyQ-86" value="Benachrichtigen" style="text;html=1;align=center;verticalAlign=middle;resizable=0;points=[];autosize=1;strokeColor=none;fillColor=none;" vertex="1" parent="1">
          <mxGeometry x="460" y="1075" width="110" height="30" as="geometry" />
        </mxCell>
        <mxCell id="ssYmU_9ab5f28VPRTGyQ-87" value="(fahrzeugKennzeichen)" style="text;html=1;align=center;verticalAlign=middle;resizable=0;points=[];autosize=1;strokeColor=none;fillColor=none;" vertex="1" parent="1">
          <mxGeometry x="445" y="1094" width="150" height="30" as="geometry" />
        </mxCell>
      </root>
    </mxGraphModel>
  </diagram>
</mxfile>
